<svg xmlns="http://www.w3.org/2000/svg" width="1280" height="720" viewBox="0 0 1280 720"><defs><linearGradient id="sky" x2="0" y2="1"><stop stop-color="#8acbe1"/><stop offset="1" stop-color="#edf2cd"/></linearGradient><linearGradient id="hill" x2="0" y2="1"><stop stop-color="#9cc5bb"/><stop offset="1" stop-color="#b2cbb0"/></linearGradient></defs><path fill="url(#sky)" d="M0 0H1280V720H0Z"/><g fill="#fff9e8" opacity=".6"><ellipse cx="390" cy="125" rx="130" ry="28"/><ellipse cx="460" cy="102" rx="63" ry="42"/><ellipse cx="1010" cy="155" rx="142" ry="27"/></g><path d="M0 442Q180 180 350 402Q600 158 870 365Q1110 148 1280 347V720H0Z" fill="url(#hill)"/><path d="M0 531Q350 304 641 466Q950 268 1280 449V720H0Z" fill="#87b39e"/><path d="M821 357Q849 430 800 569L871 596Q914 419 864 350Z" fill="#b7e7e1" opacity=".8"/><g transform="translate(30,0) scale(1.15)"><path d="M-23 650Q15 323 -34 101L33 95Q15 329 74 650" fill="#7c8c61"/><path d="M14 285L-81 158M13 211L110 101" stroke="#7c8c61" stroke-width="23"/><g fill="#739965"><ellipse cx="-30" cy="43" rx="160" ry="98"/><ellipse cx="104" cy="35" rx="119" ry="78"/></g><g fill="#a5be70"><ellipse cx="-64" cy="85" rx="86" ry="50"/><ellipse cx="57" cy="94" rx="62" ry="38"/></g></g><g transform="translate(610,0) scale(0.85)"><path d="M-23 650Q15 323 -34 101L33 95Q15 329 74 650" fill="#7c8c61"/><path d="M14 285L-81 158M13 211L110 101" stroke="#7c8c61" stroke-width="23"/><g fill="#739965"><ellipse cx="-30" cy="43" rx="160" ry="98"/><ellipse cx="104" cy="35" rx="119" ry="78"/></g><g fill="#a5be70"><ellipse cx="-64" cy="85" rx="86" ry="50"/><ellipse cx="57" cy="94" rx="62" ry="38"/></g></g><g transform="translate(1190,0) scale(1.1)"><path d="M-23 650Q15 323 -34 101L33 95Q15 329 74 650" fill="#7c8c61"/><path d="M14 285L-81 158M13 211L110 101" stroke="#7c8c61" stroke-width="23"/><g fill="#739965"><ellipse cx="-30" cy="43" rx="160" ry="98"/><ellipse cx="104" cy="35" rx="119" ry="78"/></g><g fill="#a5be70"><ellipse cx="-64" cy="85" rx="86" ry="50"/><ellipse cx="57" cy="94" rx="62" ry="38"/></g></g><path d="M0 613Q220 550 450 607Q720 551 965 601Q1160 555 1280 601V720H0Z" fill="#699875"/></svg>